<?xml version="1.0" encoding="UTF-8" standalone="no"?>
<!DOCTYPE svg PUBLIC "-//W3C//DTD SVG 1.1//EN" "http://www.w3.org/Graphics/SVG/1.1/DTD/svg11.dtd">
<svg width="100%" height="100%" viewBox="0 0 488 90" version="1.1" xmlns="http://www.w3.org/2000/svg" xmlns:xlink="http://www.w3.org/1999/xlink" xml:space="preserve" xmlns:serif="http://www.serif.com/" style="fill-rule:evenodd;clip-rule:evenodd;stroke-linejoin:round;stroke-miterlimit:2;">
    <g transform="matrix(1,0,0,1,-3082.95,-427.798)">
        <g transform="matrix(1,0,0,1.01235,2610.51,0)">
            <g transform="matrix(1,5.48339e-17,-5.55112e-17,0.987799,-2610.51,5.61499e-14)">
                <path d="M3090.72,472.669C3080.8,462.747 3081,446.431 3091.18,436.258C3101.35,426.084 3117.67,425.879 3127.59,435.801C3127.59,435.801 3163.54,471.757 3163.54,471.757L3126.68,508.624C3116.5,518.798 3100.19,519.003 3090.26,509.081C3080.34,499.158 3080.55,482.843 3090.72,472.669Z" style="fill:rgb(46,196,75);"/>
            </g>
            <g>
                <g transform="matrix(0.883641,0,0,0.872859,-276.975,220.501)">
                    <g transform="matrix(131.91,0,0,131.91,944.882,330.709)">
                        <path d="M0.416,0.011C0.559,0.011 0.678,-0.058 0.742,-0.143L0.618,-0.262C0.57,-0.205 0.502,-0.167 0.428,-0.167C0.316,-0.167 0.229,-0.252 0.229,-0.368C0.229,-0.487 0.317,-0.573 0.429,-0.573C0.504,-0.573 0.567,-0.533 0.615,-0.481L0.734,-0.606C0.668,-0.692 0.553,-0.752 0.417,-0.752C0.208,-0.752 0.036,-0.595 0.036,-0.367C0.036,-0.141 0.203,0.011 0.416,0.011Z" style="fill:rgb(254,144,63);fill-rule:nonzero;"/>
                    </g>
                    <g transform="matrix(131.91,0,0,131.91,1043.29,330.709)">
                        <path d="M0.464,-0.552L0.464,-0.502C0.425,-0.539 0.372,-0.566 0.301,-0.566C0.145,-0.566 0.031,-0.444 0.031,-0.278C0.031,-0.115 0.141,0.014 0.301,0.014C0.372,0.014 0.425,-0.012 0.464,-0.048L0.464,0L0.63,0L0.63,-0.552L0.464,-0.552ZM0.334,-0.147C0.261,-0.147 0.207,-0.205 0.207,-0.277C0.207,-0.346 0.259,-0.405 0.334,-0.405C0.407,-0.405 0.462,-0.346 0.462,-0.277C0.462,-0.206 0.407,-0.147 0.334,-0.147Z" style="fill:rgb(254,144,63);fill-rule:nonzero;"/>
                    </g>
                    <g transform="matrix(131.91,0,0,131.91,1133.78,330.709)">
                        <path d="M0.056,0L0.232,0L0.232,-0.238C0.232,-0.357 0.285,-0.397 0.354,-0.397C0.378,-0.397 0.403,-0.392 0.427,-0.384L0.441,-0.552C0.419,-0.562 0.393,-0.567 0.372,-0.567C0.315,-0.567 0.261,-0.541 0.225,-0.484L0.225,-0.552L0.056,-0.552L0.056,0Z" style="fill:rgb(254,144,63);fill-rule:nonzero;"/>
                    </g>
                    <g transform="matrix(131.91,0,0,131.91,1192.61,330.709)">
                        <path d="M0.056,0L0.232,0L0.232,-0.238C0.232,-0.357 0.285,-0.397 0.354,-0.397C0.378,-0.397 0.403,-0.392 0.427,-0.384L0.441,-0.552C0.419,-0.562 0.393,-0.567 0.372,-0.567C0.315,-0.567 0.261,-0.541 0.225,-0.484L0.225,-0.552L0.056,-0.552L0.056,0Z" style="fill:rgb(254,144,63);fill-rule:nonzero;"/>
                    </g>
                    <g transform="matrix(131.91,0,0,131.91,1249.59,330.709)">
                        <path d="M0.33,0.015C0.512,0.015 0.631,-0.115 0.631,-0.276C0.631,-0.436 0.512,-0.568 0.33,-0.568C0.149,-0.568 0.03,-0.436 0.03,-0.276C0.03,-0.115 0.149,0.015 0.33,0.015ZM0.33,-0.15C0.261,-0.15 0.206,-0.205 0.206,-0.277C0.206,-0.347 0.261,-0.402 0.33,-0.402C0.4,-0.402 0.455,-0.347 0.455,-0.277C0.455,-0.205 0.4,-0.15 0.33,-0.15Z" style="fill:rgb(254,144,63);fill-rule:nonzero;"/>
                    </g>
                    <g transform="matrix(131.91,0,0,131.91,1335.6,330.709)">
                        <path d="M0.438,-0.172C0.413,-0.159 0.386,-0.147 0.351,-0.147C0.306,-0.147 0.281,-0.173 0.281,-0.235L0.281,-0.406L0.454,-0.406L0.454,-0.552L0.281,-0.552L0.281,-0.748L0.106,-0.748L0.106,-0.552L0.02,-0.552L0.02,-0.406L0.104,-0.406L0.104,-0.214C0.104,-0.06 0.177,0.014 0.309,0.014C0.37,0.014 0.439,-0.004 0.485,-0.031L0.438,-0.172Z" style="fill:rgb(254,144,63);fill-rule:nonzero;"/>
                    </g>
                </g>
            </g>
        </g>
    </g>
</svg>
